<svg viewBox="1224 675 3712 2552" xmlns="http://www.w3.org/2000/svg" role="img" aria-labelledby="title">
  <title id="title">KSCORE</title>
  <defs>
    <linearGradient id="lockupKShade" x1="2554" y1="1153" x2="3808" y2="2454" gradientUnits="userSpaceOnUse">
      <stop offset="0" stop-color="#67e8f9"/>
      <stop offset=".38" stop-color="#38bdf8"/>
      <stop offset=".7" stop-color="#2563eb"/>
      <stop offset="1" stop-color="#8b5cf6"/>
    </linearGradient>
    <linearGradient id="lockupWordKShade" x1="1304" y1="2792" x2="1726" y2="3145" gradientUnits="userSpaceOnUse">
      <stop offset="0" stop-color="#67e8f9"/>
      <stop offset=".48" stop-color="#38bdf8"/>
      <stop offset="1" stop-color="#2563eb"/>
    </linearGradient>
  </defs>
  <path d="M2446.8 2278.2A854.1 854.1 0 0 1 3513.4 946.8" fill="none" stroke="#ffffff" stroke-width="59.8" stroke-linecap="butt"/>
  <path d="M2676 2443L2677 2446L2708 2459L2805 2490L2868 2503L2968 2515L3059 2515L3150 2506L3253 2483L3331 2455L3294 2410L3204 2436L3141 2448L3077 2455L3005 2457L2937 2453L2849 2440L2784 2423L2718 2400ZM3830 1300L3799 1332L3789 1349L3824 1454L3839 1536L3846 1620L3840 1745L3823 1836L3787 1943L3734 2050L3676 2136L3710 2181L3732 2157L3770 2102L3827 1997L3867 1890L3894 1774L3903 1673L3903 1596L3894 1512L3867 1400Z" fill="#ffffff" fill-rule="evenodd" shape-rendering="geometricPrecision"/>
  <path d="M2802 1153L2554 1156L2557 2394L2806 2138L2806 1855L2665 1712L2656 1688L2664 1650L2807 1519L2807 1156ZM3068 1982L3077 2001L3448 2454L3808 2453L3674 2282L3259 1780ZM3892 958L3875 956L3497 1227L2975 1647L2952 1647L2863 1578L2844 1576L2730 1675L2731 1690L2994 1947L3009 1946L3750 1131L3886 974Z" fill="url(#lockupKShade)" fill-rule="evenodd" shape-rendering="geometricPrecision"/>
  <path d="M1304 2792L1306 3145L1381 3145L1384 3067L1464 3003L1482 3015L1615 3144L1726 3144L1532 2950L1543 2936L1718 2792L1596 2793L1388 2963L1384 2961L1383 2794Z" fill="url(#lockupWordKShade)" shape-rendering="geometricPrecision"/>
  <g fill="#ffffff" shape-rendering="geometricPrecision">
    <path d="M1948 2822L1931 2858L1930 2929L1940 2963L1959 2984L2007 3003L2249 3004L2264 3015L2267 3055L2257 3071L2241 3076L1937 3076L1932 3080L1934 3146L2262 3147L2301 3135L2331 3106L2343 3072L2343 3005L2331 2972L2306 2947L2266 2934L2031 2934L2014 2927L2007 2913L2009 2876L2031 2861L2331 2860L2330 2791L2019 2790L1978 2800Z"/>
    <path d="M2579 2827L2567 2847L2559 2875L2559 3060L2568 3093L2593 3124L2620 3140L2658 3147L2949 3145L2950 3081L2946 3076L2664 3075L2646 3066L2636 3047L2636 2891L2649 2871L2661 2864L2687 2860L2947 2860L2947 2791L2648 2791L2608 2804Z"/>
    <path d="M3197 2825L3183 2848L3175 2875L3175 3060L3180 3081L3191 3104L3214 3128L3234 3139L3271 3147L3515 3147L3562 3136L3577 3127L3599 3103L3608 3086L3614 3057L3614 2877L3612 2863L3600 2835L3572 2807L3547 2795L3515 2790L3277 2790L3234 2799L3213 2811ZM3252 2893L3252 3045L3256 3057L3262 3066L3276 3074L3289 3076L3508 3075L3519 3071L3529 3063L3535 3052L3537 3033L3536 2892L3534 2882L3522 2868L3514 2864L3496 2860L3295 2860L3273 2865L3257 2879Z" fill-rule="evenodd"/>
    <path d="M3827 2793L3829 3147L3898 3147L3902 3144L3904 3033L3916 3030L4064 3031L4160 3146L4250 3145L4156 3032L4157 3028L4193 3020L4212 3009L4227 2994L4240 2968L4244 2951L4244 2868L4235 2839L4216 2814L4184 2796L4149 2790L3841 2790ZM3903 2956L3906 2959L4144 2959L4158 2954L4167 2942L4169 2931L4169 2911L4167 2880L4164 2874L4153 2864L4137 2860L3906 2860L3904 2862Z" fill-rule="evenodd"/>
    <path d="M4848 2936L4829 2933L4483 2934L4479 2951L4479 3066L4487 3097L4500 3116L4518 3132L4546 3144L4567 3147L4852 3147L4856 3140L4856 3080L4853 3076L4587 3076L4566 3071L4556 3054L4556 3007L4560 3003L4846 3003ZM4482 2858L4484 2860L4853 2860L4856 2855L4856 2796L4853 2791L4848 2790L4555 2791L4526 2799L4505 2812L4495 2822L4488 2833L4483 2846Z" fill-rule="evenodd"/>
  </g>
</svg>
