<svg viewBox="2050 675 1930 1920" xmlns="http://www.w3.org/2000/svg" role="img" aria-labelledby="title">
  <title id="title">KSCORE mark</title>
  <defs>
    <linearGradient id="kShade" x1="2554" y1="1153" x2="3808" y2="2454" gradientUnits="userSpaceOnUse">
      <stop offset="0" stop-color="#67e8f9"/>
      <stop offset=".38" stop-color="#38bdf8"/>
      <stop offset=".7" stop-color="#2563eb"/>
      <stop offset="1" stop-color="#8b5cf6"/>
    </linearGradient>
  </defs>
  <path d="M2446.8 2278.2A854.1 854.1 0 0 1 3513.4 946.8" fill="none" stroke="#ffffff" stroke-width="59.8" stroke-linecap="butt"/>
  <path d="M2676 2443L2677 2446L2708 2459L2805 2490L2868 2503L2968 2515L3059 2515L3150 2506L3253 2483L3331 2455L3294 2410L3204 2436L3141 2448L3077 2455L3005 2457L2937 2453L2849 2440L2784 2423L2718 2400ZM3830 1300L3799 1332L3789 1349L3824 1454L3839 1536L3846 1620L3840 1745L3823 1836L3787 1943L3734 2050L3676 2136L3710 2181L3732 2157L3770 2102L3827 1997L3867 1890L3894 1774L3903 1673L3903 1596L3894 1512L3867 1400Z" fill="#ffffff" fill-rule="evenodd" shape-rendering="geometricPrecision"/>
  <path d="M2802 1153L2554 1156L2557 2394L2806 2138L2806 1855L2665 1712L2656 1688L2664 1650L2807 1519L2807 1156ZM3068 1982L3077 2001L3448 2454L3808 2453L3674 2282L3259 1780ZM3892 958L3875 956L3497 1227L2975 1647L2952 1647L2863 1578L2844 1576L2730 1675L2731 1690L2994 1947L3009 1946L3750 1131L3886 974Z" fill="url(#kShade)" fill-rule="evenodd" shape-rendering="geometricPrecision"/>
</svg>
